<?xml version="1.0" standalone="no"?>
<!DOCTYPE svg PUBLIC "-//W3C//DTD SVG 1.1//EN" "http://www.w3.org/Graphics/SVG/1.1/DTD/svg11.dtd">
<svg xmlns="http://www.w3.org/2000/svg" width="1080" height="1080" viewBox="0 0 1080 1080" fill="none">
<path fill-rule="evenodd" clip-rule="evenodd" d="M67.663 67.663C0 135.326 0 244.228 0 462.033V617.968C0 835.772 0 944.674 67.663 1012.34C135.326 1080 244.228 1080 462.033 1080H617.968C835.772 1080 944.674 1080 1012.34 1012.34C1080 944.674 1080 835.771 1080 617.967V462.032C1080 244.228 1080 135.326 1012.34 67.663C944.674 0 835.771 0 617.967 0H462.032C244.228 0 135.326 0 67.663 67.663ZM365.865 473.334C365.905 407.819 419.028 354.72 484.553 354.72C532.551 354.72 573.895 383.212 592.594 424.206C587.011 425.411 581.468 426.874 575.981 428.594C535.182 441.381 499.931 467.637 475.995 503.065C459.259 527.836 448.747 556.066 445.087 585.377C398.96 569.119 365.896 525.164 365.865 473.483V473.334ZM484.553 284.586C571.401 284.586 644.555 343.22 666.589 423.061C678.131 425.183 689.516 428.388 700.587 432.671C718.442 439.579 735.01 449.109 749.801 460.841C780.146 484.913 768.379 529.36 734.934 548.9C721.377 525.695 700.345 507.778 675.281 498.08C674.17 497.651 673.055 497.239 671.935 496.843C662.035 576.821 602.121 641.297 524.459 658.006C529.749 669.609 536.91 680.365 545.741 689.814C564.091 709.449 588.563 722.275 615.151 726.193C641.739 730.111 668.87 724.89 692.104 711.383C715.339 697.876 733.302 676.883 743.053 651.84C779.147 665.895 797.737 707.947 771.541 736.479C758.772 750.385 743.903 762.394 727.352 772.016C690.388 793.504 647.225 801.811 604.926 795.578C562.627 789.344 523.695 768.939 494.501 737.702C473.589 715.326 458.56 688.341 450.48 659.165C418.814 653.394 389.904 639.725 365.865 620.273V726.969C365.865 765.703 334.465 797.103 295.731 797.103V473.499L295.731 473.408L295.731 473.318V455.875H296.534C305.379 359.811 386.181 284.586 484.553 284.586ZM596.957 495.517C598.44 495.053 599.929 494.618 601.424 494.213C593.396 539.619 559.553 576.115 515.599 587.995C518.487 571.753 524.749 556.18 534.108 542.328C549.154 520.059 571.312 503.555 596.957 495.517Z" fill="#013121"/>
</svg>