<?xml version="1.0" standalone="no"?>
<!DOCTYPE svg PUBLIC "-//W3C//DTD SVG 1.1//EN" "http://www.w3.org/Graphics/SVG/1.1/DTD/svg11.dtd">
<svg xmlns="http://www.w3.org/2000/svg" width="4069" height="952" viewBox="0 0 4069 952" fill="none">
<path fill-rule="evenodd" clip-rule="evenodd" d="M0 407.273C0 215.283 0 119.287 59.6437 59.6437C119.287 0 215.282 0 407.273 0H544.727C736.717 0 832.713 0 892.356 59.6437C952 119.287 952 215.283 952 407.273V544.727C952 736.717 952 832.713 892.356 892.356C832.713 952 736.717 952 544.727 952H407.273C215.283 952 119.287 952 59.6437 892.356C0 832.713 0 736.717 0 544.727V407.273ZM587.586 372.921C568.164 302.542 503.68 250.858 427.125 250.858C340.412 250.858 269.187 317.167 261.39 401.845H260.682V702.632C294.825 702.632 322.503 674.953 322.503 640.81V546.76C343.694 563.906 369.178 575.955 397.091 581.041C404.213 606.76 417.461 630.547 435.895 650.27C461.629 677.806 495.946 695.792 533.232 701.287C570.518 706.781 608.565 699.459 641.148 680.518C655.738 672.036 668.845 661.451 680.1 649.192C703.192 624.042 686.805 586.974 654.989 574.585C646.393 596.66 630.559 615.165 610.078 627.071C589.597 638.977 565.682 643.579 542.245 640.126C518.808 636.672 497.237 625.366 481.061 608.058C473.277 599.729 466.964 590.248 462.302 580.02C530.759 565.291 583.572 508.457 592.299 437.958C593.286 438.306 594.269 438.67 595.248 439.049C617.342 447.597 635.881 463.39 647.832 483.845C677.312 466.621 687.685 427.442 660.936 406.223C647.899 395.881 633.294 387.481 617.555 381.392C607.796 377.616 597.761 374.791 587.586 372.921ZM322.503 417.26C322.525 359.498 369.357 312.679 427.125 312.679C469.435 312.679 505.878 337.794 522.361 373.93C517.44 374.992 512.554 376.281 507.718 377.797C471.754 389.069 440.681 412.213 419.582 443.442C404.829 465.278 395.563 490.162 392.337 515.999C351.669 501.666 322.521 462.909 322.503 417.341V417.26ZM526.207 436.789C527.514 436.38 528.827 435.996 530.144 435.64C523.068 475.664 493.236 507.834 454.492 518.307C457.038 503.99 462.558 490.262 470.808 478.052C484.07 458.422 503.602 443.875 526.207 436.789ZM1772.5 159.405C1803.25 159.405 1829.77 165.839 1852.06 178.707C1874.34 191.574 1891.44 209.934 1903.37 233.786C1915.61 257.639 1921.73 286.198 1921.73 319.466C1921.73 352.733 1915.61 381.293 1903.37 405.145C1891.44 428.997 1874.34 447.357 1852.06 460.225C1829.77 473.092 1803.25 479.526 1772.5 479.526C1741.74 479.526 1715.06 473.092 1692.47 460.225C1670.18 447.357 1652.92 428.997 1640.68 405.145C1628.76 381.293 1622.79 352.733 1622.79 319.466C1622.79 286.198 1628.76 257.639 1640.68 233.786C1652.92 209.934 1670.18 191.574 1692.47 178.707C1715.06 165.839 1741.74 159.405 1772.5 159.405ZM1772.5 212.602C1754.92 212.602 1740.01 216.682 1727.77 224.842C1715.53 233.002 1706.12 245.085 1699.53 261.091C1693.25 276.783 1690.11 296.241 1690.11 319.466C1690.11 342.376 1693.25 361.835 1699.53 377.841C1706.12 393.847 1715.53 405.93 1727.77 414.09C1740.01 422.25 1754.92 426.33 1772.5 426.33C1789.76 426.33 1804.51 422.25 1816.75 414.09C1828.99 405.93 1838.25 393.847 1844.52 377.841C1851.11 361.835 1854.41 342.376 1854.41 319.466C1854.41 296.241 1851.11 276.783 1844.52 261.091C1838.25 245.085 1828.99 233.002 1816.75 224.842C1804.51 216.682 1789.76 212.602 1772.5 212.602ZM1264.86 176.353C1247.92 168.193 1227.52 164.113 1203.66 164.113H1073.26V474.819H1138.23V364.659H1203.66C1227.52 364.659 1247.92 360.736 1264.86 352.89C1281.81 344.73 1294.84 333.275 1303.94 318.524C1313.35 303.46 1318.06 285.414 1318.06 264.386C1318.06 243.359 1313.35 225.47 1303.94 210.719C1294.84 195.654 1281.81 184.199 1264.86 176.353ZM1237.56 301.106C1227.83 309.266 1213.24 313.346 1193.78 313.346H1138.23V215.427H1193.78C1213.24 215.427 1227.83 219.507 1237.56 227.666C1247.29 235.826 1252.15 248.066 1252.15 264.386C1252.15 280.392 1247.29 292.632 1237.56 301.106ZM1569.21 189.534C1549.12 172.587 1521.5 164.113 1486.35 164.113H1349.36V474.819H1413.38V355.715H1471.78L1544.73 474.819H1617.69L1533.82 345.867C1547.43 341.865 1559.23 335.89 1569.21 327.94C1589.29 311.62 1599.33 288.238 1599.33 257.795C1599.33 229.236 1589.29 206.482 1569.21 189.534ZM1519.3 295.457C1510.52 302.675 1497.02 306.284 1478.82 306.284H1413.38V215.897H1478.82C1497.02 215.897 1510.52 219.663 1519.3 227.196C1528.41 234.414 1532.96 245.712 1532.96 261.091C1532.96 276.469 1528.41 287.924 1519.3 295.457ZM2192.05 204.599C2165.37 177.608 2127.71 164.113 2079.06 164.113H1959.02V474.819H2079.06C2127.71 474.819 2165.37 461.323 2192.05 434.333C2218.72 407.342 2232.06 369.053 2232.06 319.466C2232.06 269.565 2218.72 231.276 2192.05 204.599ZM2142.15 396.671C2127.4 414.247 2105.27 423.034 2075.77 423.034H2023.98V215.897H2075.77C2105.27 215.897 2127.4 224.842 2142.15 242.731C2157.21 260.306 2164.74 285.884 2164.74 319.466C2164.74 353.047 2157.21 378.782 2142.15 396.671ZM2528.53 164.113V352.419C2528.53 394.788 2517.23 426.643 2494.63 447.985C2472.04 469.012 2439.08 479.526 2395.77 479.526C2352.46 479.526 2319.51 469.012 2296.91 447.985C2274.31 426.643 2263.02 394.788 2263.02 352.419V164.113H2327.98V349.595C2327.98 375.644 2333.47 394.945 2344.46 407.499C2355.76 420.053 2372.86 426.33 2395.77 426.33C2418.68 426.33 2435.63 420.053 2446.61 407.499C2457.6 394.945 2463.09 375.644 2463.09 349.595V164.113H2528.53ZM2812.85 439.511C2825.72 426.016 2835.13 409.225 2841.1 389.139L2781.31 371.25C2776.29 389.767 2767.5 403.576 2754.95 412.677C2742.71 421.779 2728.11 426.33 2711.17 426.33C2692.96 426.33 2677.58 422.25 2665.03 414.09C2652.48 405.93 2642.91 393.847 2636.31 377.841C2630.04 361.835 2626.9 342.376 2626.9 319.466C2626.9 296.241 2630.35 276.783 2637.26 261.091C2644.16 245.085 2653.89 233.002 2666.44 224.842C2679.31 216.682 2694.22 212.602 2711.17 212.602C2728.43 212.602 2742.55 216.682 2753.54 224.842C2764.52 232.688 2772.68 246.026 2778.01 264.857L2836.86 239.906C2831.21 221.703 2822.27 206.639 2810.03 194.713C2798.1 182.787 2783.51 173.999 2766.25 168.35C2748.98 162.387 2729.68 159.405 2708.34 159.405C2678.21 159.405 2651.85 165.839 2629.25 178.707C2606.97 191.574 2589.71 209.934 2577.47 233.786C2565.54 257.639 2559.58 286.198 2559.58 319.466C2559.58 352.733 2565.54 381.293 2577.47 405.145C2589.71 428.997 2606.97 447.357 2629.25 460.225C2651.85 473.092 2678.53 479.526 2709.28 479.526C2730.31 479.526 2749.61 476.231 2767.19 469.64C2784.76 463.049 2799.98 453.006 2812.85 439.511ZM3113.96 164.113V216.368H3009.92V474.819H2944.96V216.368H2840.45V164.113H3113.96ZM3138.8 474.819H3203.77V164.113H3138.8V474.819ZM3494.97 423.034H3308.69L3489.32 213.073V164.113H3240.28V215.897H3417.58L3236.52 425.859V474.819H3494.97V423.034ZM3758.98 164.113H3525.95V474.819H3765.57V422.564H3590.92V343.475H3723.2V293.574H3590.92V216.368H3758.98V164.113ZM3915.66 164.113C3964.3 164.113 4001.96 177.608 4028.64 204.599C4055.32 231.276 4068.66 269.565 4068.66 319.466C4068.66 369.053 4055.32 407.342 4028.64 434.333C4001.96 461.323 3964.3 474.819 3915.66 474.819H3795.61V164.113H3915.66ZM3912.36 423.034C3941.86 423.034 3963.99 414.247 3978.74 396.671C3993.8 378.782 4001.34 353.047 4001.34 319.466C4001.34 285.884 3993.8 260.306 3978.74 242.731C3963.99 224.842 3941.86 215.897 3912.36 215.897H3860.58V423.034H3912.36ZM1311 805.511C1323.87 792.016 1333.28 775.225 1339.24 755.139L1279.46 737.25C1274.44 755.767 1265.65 769.576 1253.09 778.677C1240.85 787.779 1226.26 792.33 1209.31 792.33C1191.11 792.33 1175.73 788.25 1163.18 780.09C1150.62 771.93 1141.05 759.847 1134.46 743.841C1128.18 727.835 1125.05 708.376 1125.05 685.466C1125.05 662.241 1128.5 642.783 1135.4 627.091C1142.31 611.085 1152.04 599.002 1164.59 590.842C1177.46 582.682 1192.37 578.602 1209.31 578.602C1226.57 578.602 1240.7 582.682 1251.68 590.842C1262.67 598.688 1270.83 612.026 1276.16 630.857L1335.01 605.906C1329.36 587.703 1320.41 572.639 1308.17 560.713C1296.25 548.787 1281.65 539.999 1264.39 534.35C1247.13 528.387 1227.83 525.405 1206.49 525.405C1176.36 525.405 1150 531.839 1127.4 544.707C1105.12 557.574 1087.86 575.934 1075.62 599.786C1063.69 623.639 1057.73 652.198 1057.73 685.466C1057.73 718.733 1063.69 747.293 1075.62 771.145C1087.86 794.997 1105.12 813.357 1127.4 826.225C1150 839.092 1176.67 845.526 1207.43 845.526C1228.46 845.526 1247.76 842.231 1265.33 835.64C1282.91 829.049 1298.13 819.006 1311 805.511ZM1500.54 525.405C1531.29 525.405 1557.81 531.839 1580.1 544.707C1602.38 557.574 1619.48 575.934 1631.41 599.786C1643.65 623.639 1649.77 652.198 1649.77 685.466C1649.77 718.733 1643.65 747.293 1631.41 771.145C1619.48 794.997 1602.38 813.357 1580.1 826.225C1557.81 839.092 1531.29 845.526 1500.54 845.526C1469.78 845.526 1443.1 839.092 1420.51 826.225C1398.22 813.357 1380.96 794.997 1368.72 771.145C1356.8 747.293 1350.83 718.733 1350.83 685.466C1350.83 652.198 1356.8 623.639 1368.72 599.786C1380.96 575.934 1398.22 557.574 1420.51 544.707C1443.1 531.839 1469.78 525.405 1500.54 525.405ZM1500.54 578.602C1482.96 578.602 1468.05 582.682 1455.81 590.842C1443.57 599.002 1434.16 611.085 1427.57 627.091C1421.29 642.783 1418.15 662.241 1418.15 685.466C1418.15 708.376 1421.29 727.835 1427.57 743.841C1434.16 759.847 1443.57 771.93 1455.81 780.09C1468.05 788.25 1482.96 792.33 1500.54 792.33C1517.8 792.33 1532.55 788.25 1544.79 780.09C1557.03 771.93 1566.29 759.847 1572.56 743.841C1579.15 727.835 1582.45 708.376 1582.45 685.466C1582.45 662.241 1579.15 642.783 1572.56 627.091C1566.29 611.085 1557.03 599.002 1544.79 590.842C1532.55 582.682 1517.8 578.602 1500.54 578.602ZM1878 840.819H1945.31L1831.86 530.113H1754.18L1640.73 840.819H1707.11L1733 765.025H1852.1L1878 840.819ZM1837.51 717.007H1747.59L1792.32 581.427L1837.51 717.007ZM2217.65 755.139C2211.68 775.225 2202.27 792.016 2189.4 805.511C2176.53 819.006 2161.31 829.049 2143.74 835.64C2126.16 842.231 2106.86 845.526 2085.83 845.526C2055.07 845.526 2028.4 839.092 2005.8 826.225C1983.52 813.357 1966.26 794.997 1954.02 771.145C1942.09 747.293 1936.13 718.733 1936.13 685.466C1936.13 652.198 1942.09 623.639 1954.02 599.786C1966.26 575.934 1983.52 557.574 2005.8 544.707C2028.4 531.839 2054.76 525.405 2084.89 525.405C2106.23 525.405 2125.53 528.387 2142.79 534.35C2160.05 539.999 2174.65 548.787 2186.57 560.713C2198.81 572.639 2207.76 587.703 2213.41 605.906L2154.56 630.857C2149.23 612.026 2141.07 598.688 2130.08 590.842C2119.1 582.682 2104.98 578.602 2087.71 578.602C2070.77 578.602 2055.86 582.682 2042.99 590.842C2030.44 599.002 2020.71 611.085 2013.8 627.091C2006.9 642.783 2003.45 662.241 2003.45 685.466C2003.45 708.376 2006.59 727.835 2012.86 743.841C2019.45 759.847 2029.03 771.93 2041.58 780.09C2054.13 788.25 2069.51 792.33 2087.71 792.33C2104.66 792.33 2119.26 787.779 2131.5 778.677C2144.05 769.576 2152.84 755.767 2157.86 737.25L2217.65 755.139ZM2511.69 840.819V530.113H2446.73V657.691H2309.74V530.113H2244.77V840.819H2309.74V709.946H2446.73V840.819H2511.69Z" fill="#013121"/>
</svg>